<svg id="visual" viewBox="0 0 380 440" width="380" height="440" xmlns="http://www.w3.org/2000/svg" xmlns:xlink="http://www.w3.org/1999/xlink" version="1.1"><rect x="0" y="0" width="380" height="440" fill="#f3f4f6"></rect><defs><linearGradient id="grad1_0" x1="0%" y1="0%" x2="100%" y2="100%"><stop offset="30%" stop-color="#e5e7eb" stop-opacity="1"></stop><stop offset="70%" stop-color="#e5e7eb" stop-opacity="1"></stop></linearGradient></defs><defs><linearGradient id="grad1_1" x1="0%" y1="0%" x2="100%" y2="100%"><stop offset="30%" stop-color="#e5e7eb" stop-opacity="1"></stop><stop offset="70%" stop-color="#f3f4f6" stop-opacity="1"></stop></linearGradient></defs><defs><linearGradient id="grad2_0" x1="0%" y1="0%" x2="100%" y2="100%"><stop offset="30%" stop-color="#e5e7eb" stop-opacity="1"></stop><stop offset="70%" stop-color="#e5e7eb" stop-opacity="1"></stop></linearGradient></defs><defs><linearGradient id="grad2_1" x1="0%" y1="0%" x2="100%" y2="100%"><stop offset="30%" stop-color="#f3f4f6" stop-opacity="1"></stop><stop offset="70%" stop-color="#e5e7eb" stop-opacity="1"></stop></linearGradient></defs><g transform="translate(380, 0)"><path d="M0 261.6C-31.3 230.2 -62.7 198.9 -104.5 181C-146.3 163.1 -198.6 158.7 -226.6 130.8C-254.5 102.9 -258.1 51.4 -261.6 0L0 0Z" fill="#ecedf0"></path><path d="M0 130.8C-15.7 115.1 -31.3 99.4 -52.2 90.5C-73.2 81.6 -99.3 79.4 -113.3 65.4C-127.3 51.4 -129 25.7 -130.8 0L0 0Z" fill="#e5e7eb"></path></g><g transform="translate(0, 440)"><path d="M0 -261.6C28.4 -225.2 56.8 -188.7 99 -171.5C141.2 -154.2 197.2 -156.2 226.6 -130.8C256 -105.4 258.8 -52.7 261.6 0L0 0Z" fill="#ecedf0"></path><path d="M0 -130.8C14.2 -112.6 28.4 -94.4 49.5 -85.7C70.6 -77.1 98.6 -78.1 113.3 -65.4C128 -52.7 129.4 -26.4 130.8 0L0 0Z" fill="#e5e7eb"></path></g></svg>