<svg id="visual" viewBox="0 0 380 430" width="380" height="430" xmlns="http://www.w3.org/2000/svg" xmlns:xlink="http://www.w3.org/1999/xlink" version="1.1"><rect x="0" y="0" width="380" height="430" fill="#002249"></rect><defs><linearGradient id="grad1_0" x1="0%" y1="0%" x2="100%" y2="100%"><stop offset="30%" stop-color="#0d2d52" stop-opacity="1"></stop><stop offset="70%" stop-color="#0d2d52" stop-opacity="1"></stop></linearGradient></defs><defs><linearGradient id="grad1_1" x1="0%" y1="0%" x2="100%" y2="100%"><stop offset="30%" stop-color="#0d2d52" stop-opacity="1"></stop><stop offset="70%" stop-color="#002249" stop-opacity="1"></stop></linearGradient></defs><defs><linearGradient id="grad2_0" x1="0%" y1="0%" x2="100%" y2="100%"><stop offset="30%" stop-color="#0d2d52" stop-opacity="1"></stop><stop offset="70%" stop-color="#0d2d52" stop-opacity="1"></stop></linearGradient></defs><defs><linearGradient id="grad2_1" x1="0%" y1="0%" x2="100%" y2="100%"><stop offset="30%" stop-color="#002249" stop-opacity="1"></stop><stop offset="70%" stop-color="#0d2d52" stop-opacity="1"></stop></linearGradient></defs><g transform="translate(380, 0)"><path d="M0 258.2C-28.5 223 -56.9 187.7 -98.5 170.6C-140.1 153.5 -194.8 154.5 -223.6 129.1C-252.4 103.7 -255.3 51.9 -258.2 0L0 0Z" fill="#06274e"></path><path d="M0 129.1C-14.2 111.5 -28.5 93.9 -49.2 85.3C-70 76.7 -97.4 77.3 -111.8 64.6C-126.2 51.9 -127.7 25.9 -129.1 0L0 0Z" fill="#0d2d52"></path></g><g transform="translate(0, 430)"><path d="M0 -258.2C24.7 -216.5 49.4 -174.8 91.5 -158.5C133.6 -142.2 193 -151.3 223.6 -129.1C254.3 -106.9 256.3 -53.5 258.2 0L0 0Z" fill="#06274e"></path><path d="M0 -129.1C12.4 -108.3 24.7 -87.4 45.7 -79.2C66.8 -71.1 96.5 -75.6 111.8 -64.6C127.2 -53.5 128.1 -26.7 129.1 0L0 0Z" fill="#0d2d52"></path></g></svg>